<svg version="1.1" xmlns="http://www.w3.org/2000/svg" xmlns:xlink="http://www.w3.org/1999/xlink" width="73" height="82.08816" viewBox="0,0,73,82.08816"><defs><linearGradient x1="203.5" y1="179.51683" x2="276.5" y2="179.51683" gradientUnits="userSpaceOnUse" id="color-1"><stop offset="0" stop-color="#8dc63f"/><stop offset="1" stop-color="#006838"/></linearGradient><radialGradient cx="240" cy="179.51683" r="29.85383" gradientUnits="userSpaceOnUse" id="color-2"><stop offset="0" stop-color="#d7df23"/><stop offset="1" stop-color="#009444"/></radialGradient></defs><g transform="translate(-203.5,-136.30656)"><g data-paper-data="{&quot;isPaintingLayer&quot;:true}" fill-rule="nonzero" stroke="none" stroke-width="1" stroke-linecap="butt" stroke-linejoin="miter" stroke-miterlimit="10" stroke-dasharray="" stroke-dashoffset="0" style="mix-blend-mode: normal"><path d="M276.5,179.51613c0,20.12513 -16.37311,36.5 -36.5,36.5c-20.12601,0 -36.5,-16.37487 -36.5,-36.5c0,-20.12601 16.37311,-36.5 36.5,-36.5c20.12689,0 36.5,16.37487 36.5,36.5z" fill="url(#color-1)"/><path d="M210.14564,179.51701c0,-16.48811 13.36625,-29.85436 29.85436,-29.85436c16.48811,0 29.85436,13.36625 29.85436,29.85436c0,16.48811 -13.36625,29.85436 -29.85436,29.85436c-16.48811,0 -29.85436,-13.36625 -29.85436,-29.85436z" fill="url(#color-2)"/><text transform="translate(224.21999,200.07147) scale(1.46586,1.46586)" font-size="40" xml:space="preserve" fill="#000000" fill-rule="nonzero" stroke="none" stroke-width="1" stroke-linecap="butt" stroke-linejoin="miter" stroke-miterlimit="10" stroke-dasharray="" stroke-dashoffset="0" font-family="Sans Serif" font-weight="normal" text-anchor="start" style="mix-blend-mode: normal"><tspan x="0" dy="0">+</tspan></text><text transform="translate(234.38433,206.42452) scale(0.13371,0.13371)" font-size="40" xml:space="preserve" fill="#000000" fill-rule="nonzero" stroke="none" stroke-width="1" stroke-linecap="butt" stroke-linejoin="miter" stroke-miterlimit="10" stroke-dasharray="" stroke-dashoffset="0" font-family="Sans Serif" font-weight="normal" text-anchor="start" style="mix-blend-mode: normal"><tspan x="0" dy="0">#ML</tspan></text></g></g></svg>