<svg version="1.1" xmlns="http://www.w3.org/2000/svg" xmlns:xlink="http://www.w3.org/1999/xlink" width="91.001" height="54.672" viewBox="0,0,91.001,54.672"><defs><linearGradient x1="195.1699" y1="176.1562" x2="286.1699" y2="176.1562" gradientUnits="userSpaceOnUse" id="color-1"><stop offset="0.012" stop-color="#66b3e3"/><stop offset="1" stop-color="#1c75bc"/></linearGradient></defs><g transform="translate(-195.169,-148.82)"><g data-paper-data="{&quot;isPaintingLayer&quot;:true}" fill-rule="nonzero" stroke="none" stroke-width="1" stroke-linecap="butt" stroke-linejoin="miter" stroke-miterlimit="10" stroke-dasharray="" stroke-dashoffset="0" style="mix-blend-mode: normal"><path d="M286.17,194.887c0,4.752 -3.854,8.605 -8.605,8.605h-73.792c-4.752,0 -8.604,-3.854 -8.604,-8.605v-37.463c0,-4.752 3.852,-8.604 8.604,-8.604h73.791c4.754,0 8.605,3.852 8.605,8.604v37.463z" fill="url(#color-1)"/><path d="M282.755,157.424v37.462c0,2.862 -2.327,5.19 -5.191,5.19h-73.791c-2.861,0 -5.19,-2.328 -5.19,-5.19v-37.463c0,-2.862 2.329,-5.19 5.19,-5.19h73.791c2.864,0 5.191,2.329 5.191,5.191z" fill="#27aae1"/><text transform="translate(204.26002,181.71365) scale(0.40855,0.40855)" font-size="40" xml:space="preserve" fill="#000000" fill-rule="nonzero" stroke="none" stroke-width="1" stroke-linecap="butt" stroke-linejoin="miter" stroke-miterlimit="10" stroke-dasharray="" stroke-dashoffset="0" font-family="Sans Serif" font-weight="normal" text-anchor="start" style="mix-blend-mode: normal"><tspan x="0" dy="0">LOG OUT</tspan></text></g></g></svg>